# xmcd
#
# Track frame offsets: 
#        150
#        13019
#        26295
#        40697
#        53790
#        63413
#        77591
#        91421
#        104262
#        116029
#        127544
#        140266
#
# Disc length: 2054 seconds
#
# Revision: 0
# Processed by: cddbd v1.5.2PL0 Copyright (c) Steve Scherf et al.
# Submitted via: ExactAudioCopy v1.0b1
#
DISCID=8a08040c
DTITLE=Hilde Fjørtoft - Kem Kalte Du Darling
DYEAR=2007
DGENRE=Country
TTITLE0=Ei Ti Som e Forbi
TTITLE1=Dal'n
TTITLE2=He Ej Raka Legga For Slikt
TTITLE3=He Du Peiling
TTITLE4=Ola Oppi Li
TTITLE5=Ho Ville Reise
TTITLE6=Kem Kalte Du Darling
TTITLE7=Der Som Ej Bor
TTITLE8=Ongkar
TTITLE9=Du e Gammalt Nytt
TTITLE10=Just One More
TTITLE11=Ej Tenkte Bære
EXTD=
EXTT0=
EXTT1=
EXTT2=
EXTT3=
EXTT4=
EXTT5=
EXTT6=
EXTT7=
EXTT8=
EXTT9=
EXTT10=
EXTT11=
PLAYORDER=
